<?xml version="1.0" encoding="utf-8"?>
<svg viewBox="0 0 512 512" height="800px" width="800px" xmlns="http://www.w3.org/2000/svg">
  <circle style="fill: rgb(136, 197, 204);" cx="258.967" cy="256.41" r="256" transform="matrix(0.9774390459060669, 0.005987000185996294, -0.005972000304609537, 0.9750500321388245, -1.2634940147402176, -1.8605470657348633)"/>
  <g transform="matrix(0.9774390459060669, 0.005987000185996294, -0.005972000304609537, 0.9750500321388245, 1.6347240209579468, -1.44281804561615)" style="">
    <path style="fill:#FFD464;" d="M435.132,242.22c0.28-1.624,0.54-3.26,0.756-4.908C435.668,238.956,435.416,240.592,435.132,242.22z "/>
    <path style="fill:#FFD464;" d="M435.132,200.528c0.28,1.624,0.536,3.26,0.756,4.908 C435.672,203.788,435.416,202.152,435.132,200.528z"/>
    <path style="fill:#FFD464;" d="M436.6,230.476c0.084-1.168,0.18-2.328,0.24-3.5C436.78,228.148,436.692,229.312,436.6,230.476z"/>
    <path style="fill:#FFD464;" d="M436.84,215.772c-0.06-1.172-0.152-2.336-0.24-3.5C436.692,213.432,436.78,214.596,436.84,215.772z"/>
    <path style="fill:#FFD464;" d="M436.464,210.484c-0.136-1.516-0.312-3.016-0.504-4.512 C436.156,207.468,436.324,208.972,436.464,210.484z"/>
    <path style="fill:#FFD464;" d="M435.96,236.776c0.192-1.5,0.368-3,0.504-4.512C436.324,233.776,436.156,235.28,435.96,236.776z"/>
  </g>
  <g transform="matrix(0.9774390459060669, 0.005987000185996294, -0.005972000304609537, 0.9750500321388245, 1.6347240209579468, -1.44281804561615)" style="">
    <path style="fill:#FFD464;" d="M311.756,101.908c-1.14,0.052-2.272,0.148-3.416,0.232 C309.48,102.052,310.616,101.96,311.756,101.908z"/>
    <path style="fill:#FFD464;" d="M326.384,102.136c-1.132-0.084-2.252-0.176-3.396-0.232 C324.124,101.96,325.252,102.048,326.384,102.136z"/>
    <path style="fill:#FFD464;" d="M306.464,102.28c-1.496,0.136-2.98,0.308-4.46,0.5C303.484,102.584,304.968,102.42,306.464,102.28z"/>
    <path style="fill:#FFD464;" d="M332.728,102.776c-1.476-0.188-2.952-0.36-4.436-0.496 C329.772,102.42,331.252,102.584,332.728,102.776z"/>
    <path style="fill:#FFD464;" d="M338.212,103.608c-1.608-0.284-3.236-0.536-4.872-0.752 C334.972,103.08,336.592,103.328,338.212,103.608z"/>
    <path style="fill:#FFD464;" d="M296.524,103.612c1.616-0.284,3.252-0.536,4.892-0.756 C299.772,103.076,298.14,103.328,296.524,103.612z"/>
  </g>
  <g transform="matrix(0.9774390459060669, 0.005987000185996294, -0.005972000304609537, 0.9750500321388245, 1.6347240209579468, -1.44281804561615)" style="">
    <path style="fill:#F5F5F5;" d="M197.756,221.372c0,1.88,0.056,3.752,0.14,5.608C197.816,225.12,197.756,223.252,197.756,221.372z"/>
    <path style="fill:#F5F5F5;" d="M198.852,205.436c-0.024,0.176-0.048,0.356-0.072,0.536 C198.804,205.792,198.828,205.612,198.852,205.436z"/>
    <path style="fill:#F5F5F5;" d="M198.272,210.48c-0.056,0.604-0.084,1.216-0.132,1.82 C198.184,211.692,198.228,211.084,198.272,210.48z"/>
    <path style="fill:#F5F5F5;" d="M228.884,319.4c0.324,0.08,0.648,0.14,0.968,0.224c0.02-0.08,0.04-0.152,0.064-0.224H228.884z"/>
    <path style="fill:#F5F5F5;" d="M198.14,230.448c0.048,0.604,0.084,1.216,0.132,1.82 C198.228,231.664,198.184,231.056,198.14,230.448z"/>
    <path style="fill:#F5F5F5;" d="M197.908,215.764c-0.088,1.86-0.14,3.728-0.14,5.608 C197.756,219.492,197.816,217.624,197.908,215.764z"/>
    <path style="fill:#F5F5F5;" d="M198.78,236.776c0.024,0.176,0.048,0.356,0.072,0.536 C198.828,237.132,198.804,236.952,198.78,236.776z"/>
    <path style="fill:#F5F5F5;" d="M0.156,264.796C0.056,261.876,0,258.944,0,256C0,258.944,0.064,261.876,0.156,264.796z"/>
    <path style="fill:#F5F5F5;" d="M0,256c0-3.808,0.084-7.592,0.252-11.36C0.084,248.408,0,252.192,0,256z"/>
    <path style="fill:#F5F5F5;" d="M0.616,273.736c-0.164-2.352-0.272-4.72-0.376-7.088C0.34,269.016,0.46,271.38,0.616,273.736z"/>
    <path style="fill:#F5F5F5;" d="M1.42,282.872c-0.272-2.56-0.492-5.128-0.688-7.712C0.92,277.744,1.152,280.312,1.42,282.872z"/>
    <path style="fill:#F5F5F5;" d="M0.916,234.568c0.032-0.376,0.04-0.752,0.076-1.128C0.952,233.812,0.936,234.192,0.916,234.568z"/>
  </g>
  <path style="opacity: 0.4; fill: rgb(179, 216, 220); transform-origin: 107.799px 286.913px;" d="M 55.143 405.232 C 63.354 402.1 72.224 400.31 81.541 400.31 C 81.893 400.31 82.23 400.356 82.581 400.365 C 93.537 347.251 140.232 307.336 196.185 307.336 C 202.34 307.336 208.38 307.828 214.276 308.759 L 214.276 281.867 C 204.701 268.228 197.988 252.459 194.977 235.399 C 194.977 235.403 194.977 235.407 194.977 235.411 L 174.58 215.064 L 194.977 194.715 C 194.977 194.719 194.977 194.723 194.977 194.727 C 197.988 177.667 204.697 161.895 214.284 148.252 C 214.28 148.252 214.276 148.256 214.276 148.256 L 214.276 143.384 C 189.195 127.51 159.543 118.294 127.74 118.294 C 115.518 118.294 103.624 119.698 92.168 122.272 C 107.55 142.112 116.742 167.055 116.742 194.185 C 116.742 197.731 116.558 201.233 116.245 204.696 C 134.207 215.274 146.28 234.545 146.28 256.761 C 146.28 290.273 118.888 317.348 85.092 317.348 L 9.497 317.348 C 5.638 303.833 2.866 289.854 1.314 275.514 C 9.294 350.375 50.432 415.353 109.81 455.532 L 110.025 455.532 C 89.326 441.551 70.789 424.615 55.143 405.232 Z" transform="matrix(0.999980926514, 0.00612499984, -0.00612499984, 0.999980926514, -0.00000654972, -0.000017139535)"/>
  <path style="opacity: 0.4; fill: rgb(179, 216, 220); transform-origin: 216.131px 222.71px;" d="M 229.549 299.744 C 232.008 295.24 235.093 291.132 238.698 287.532 C 220.24 269.174 208.819 243.782 208.819 215.729 C 208.819 192.756 216.486 171.574 229.397 154.568 C 225.463 151.421 221.393 148.453 217.178 145.676 C 216.354 146.765 215.466 147.802 214.68 148.921 C 205.105 162.565 198.384 178.337 195.373 195.397 C 195.096 196.984 194.846 198.583 194.634 200.191 C 194.611 200.362 194.588 200.538 194.564 200.713 C 194.372 202.172 194.204 203.634 194.067 205.108 C 194.013 205.698 193.981 206.291 193.938 206.883 C 193.856 208.006 193.763 209.129 193.7 210.265 C 193.618 212.078 193.563 213.9 193.563 215.733 C 193.563 217.566 193.622 219.391 193.7 221.202 C 193.763 222.336 193.845 223.459 193.938 224.582 C 193.981 225.176 194.021 225.768 194.067 226.357 C 194.204 227.831 194.372 229.294 194.564 230.753 C 194.588 230.925 194.611 231.1 194.634 231.276 C 194.857 232.882 195.096 234.481 195.373 236.069 C 198.384 253.128 205.093 268.897 214.672 282.539 C 219.047 288.761 224.068 294.49 229.549 299.744 Z" transform="matrix(0.999980926514, 0.00612499984, -0.00612499984, 0.999980926514, -0.000012947807, -0.000013107717)"/>
  <g transform="matrix(0.9774390459060669, 0.005987000185996294, -0.005972000304609537, 0.9750500321388245, 1.6346020698547363, -1.4424450397491455)" style=""/>
  <path style="opacity: 0.4; fill: rgb(179, 216, 220); transform-origin: 185.218px 215.539px;" d="M 194.607 230.559 C 194.415 229.1 194.247 227.638 194.11 226.164 C 194.056 225.574 194.028 224.978 193.981 224.389 C 193.899 223.262 193.802 222.142 193.743 221.008 C 193.661 219.193 193.606 217.372 193.606 215.539 C 193.606 213.706 193.661 211.885 193.743 210.071 C 193.802 208.936 193.895 207.816 193.981 206.689 C 194.028 206.101 194.064 205.504 194.11 204.914 C 194.247 203.44 194.415 201.978 194.607 200.519 C 194.63 200.348 194.654 200.172 194.677 199.996 C 194.892 198.385 195.139 196.79 195.416 195.203 C 195.416 195.199 195.416 195.195 195.416 195.191 L 175.019 215.539 L 195.416 235.887 C 195.416 235.883 195.416 235.879 195.416 235.875 C 195.139 234.288 194.889 232.692 194.677 231.082 C 194.654 230.906 194.63 230.731 194.607 230.559 Z" transform="matrix(0.999980926514, 0.00612499984, -0.00612499984, 0.999980926514, -0.000011049344, -0.000012770788)"/>
  <path style="fill: rgb(255, 212, 100); transform-origin: 193.828px 222.752px;" d="M 193.711 221.061 C 193.765 222.195 193.855 223.315 193.945 224.442 C 193.855 223.318 193.762 222.195 193.711 221.061 Z" transform="matrix(0.999980926507, 0.00612499984, -0.006124999841, 0.999980926515, -0.000011644689, -0.000013174108)"/>
  <path style="fill: rgb(245, 245, 245); transform-origin: 193.828px 222.752px;" d="M 193.711 221.061 C 193.765 222.195 193.855 223.315 193.945 224.442 C 193.855 223.318 193.762 222.195 193.711 221.061 Z" transform="matrix(0.999980926507, 0.00612499984, -0.006124999841, 0.999980926515, -0.000011644689, -0.000013174108)"/>
  <path style="fill: rgb(255, 212, 100); transform-origin: 193.906px 208.438px;" d="M 194.025 206.747 C 193.943 207.874 193.846 208.993 193.787 210.129 C 193.85 208.993 193.943 207.87 194.025 206.747 Z" transform="matrix(0.99998092651, 0.006124999841, -0.006124999834, 0.999980926512, -0.000011682101, -0.000012436411)"/>
  <path style="fill: rgb(245, 245, 245); transform-origin: 193.906px 208.438px;" d="M 194.025 206.747 C 193.943 207.874 193.846 208.993 193.787 210.129 C 193.85 208.993 193.943 207.87 194.025 206.747 Z" transform="matrix(0.99998092651, 0.006124999841, -0.006124999834, 0.999980926512, -0.000011682101, -0.000012436411)"/>
  <path style="fill: rgb(255, 212, 100); transform-origin: 195.157px 197.664px;" d="M 195.526 195.267 C 195.249 196.854 194.999 198.449 194.787 200.061 C 195.01 198.453 195.249 196.854 195.526 195.267 Z" transform="matrix(0.999980926513, 0.006124999841, -0.006124999841, 0.999980926514, -0.000011709781, -0.000011722916)"/>
  <path style="fill: rgb(245, 245, 245); transform-origin: 195.157px 197.664px;" d="M 195.526 195.267 C 195.249 196.854 194.999 198.449 194.787 200.061 C 195.01 198.453 195.249 196.854 195.526 195.267 Z" transform="matrix(0.999980926513, 0.006124999841, -0.006124999841, 0.999980926514, -0.000011709781, -0.000011722916)"/>
  <path style="fill: rgb(255, 212, 100); transform-origin: 194.438px 202.778px;" d="M 194.686 200.58 C 194.494 202.039 194.326 203.501 194.189 204.975 C 194.33 203.501 194.494 202.035 194.686 200.58 Z" transform="matrix(0.999980926513, 0.006124999838, -0.006124999838, 0.999980926513, -0.000011646606, -0.000011989147)"/>
  <path style="fill: rgb(245, 245, 245); transform-origin: 194.438px 202.778px;" d="M 194.686 200.58 C 194.494 202.039 194.326 203.501 194.189 204.975 C 194.33 203.501 194.494 202.035 194.686 200.58 Z" transform="matrix(0.999980926513, 0.006124999838, -0.006124999838, 0.999980926513, -0.000011646606, -0.000011989147)"/>
  <path style="fill: rgb(255, 212, 100); transform-origin: 194.281px 228.418px;" d="M 194.032 226.22 C 194.169 227.694 194.337 229.156 194.529 230.615 C 194.337 229.156 194.173 227.694 194.032 226.22 Z" transform="matrix(0.999980926515, 0.006124999838, -0.00612499984, 0.999980926513, -0.000011617974, -0.000013535794)"/>
  <path style="fill: rgb(245, 245, 245); transform-origin: 194.281px 228.418px;" d="M 194.032 226.22 C 194.169 227.694 194.337 229.156 194.529 230.615 C 194.337 229.156 194.173 227.694 194.032 226.22 Z" transform="matrix(0.999980926515, 0.006124999838, -0.00612499984, 0.999980926513, -0.000011617974, -0.000013535794)"/>
  <path style="fill: rgb(255, 212, 100); transform-origin: 194.936px 233.539px;" d="M 195.305 235.935 C 195.028 234.348 194.778 232.749 194.566 231.142 C 194.781 232.749 195.028 234.344 195.305 235.935 Z" transform="matrix(0.999980926514, 0.006124999839, -0.006124999838, 0.999980926512, -0.000011740835, -0.00001379354)"/>
  <path style="fill: rgb(245, 245, 245); transform-origin: 194.936px 233.539px;" d="M 195.305 235.935 C 195.028 234.348 194.778 232.749 194.566 231.142 C 194.781 232.749 195.028 234.344 195.305 235.935 Z" transform="matrix(0.999980926514, 0.006124999839, -0.006124999838, 0.999980926512, -0.000011740835, -0.00001379354)"/>
  <g transform="matrix(0.9774390459060669, 0.005987000185996294, -0.005972000304609537, 0.9750500321388245, 1.6347240209579468, -1.44281804561615)" style="">
    <path style="opacity:0.4;fill:#B3D8DC;enable-background:new ;" d="M234.536,307.608c-5.612-5.4-10.704-11.336-15.184-17.732l0,0v27.584 c3.228,0.508,6.4,1.168,9.532,1.936h1.032C231.016,315.256,232.548,311.296,234.536,307.608z"/>
    <path style="fill:#FFD464;" d="M234.536,307.608c0.02-0.024,0.028-0.048,0.036-0.08c-5.6-5.388-10.744-11.256-15.22-17.656 C223.832,296.28,228.92,302.212,234.536,307.608z"/>
  </g>
  <path style="fill: rgb(245, 245, 245); transform-origin: 221.691px 291.204px;" d="M 229.094 299.851 C 229.114 299.827 229.121 299.803 229.129 299.772 C 223.655 294.519 218.627 288.797 214.252 282.556 C 218.631 288.804 223.605 294.589 229.094 299.851 Z" transform="matrix(0.999980926514, 0.00612499984, -0.00612499984, 0.999980926514, -0.00001338311, -0.000017405215)"/>
  <path style="opacity: 0.4; fill: rgb(179, 216, 220); transform-origin: 247.909px 220.272px;" d="M 238.702 286.752 C 248.364 277.106 261.72 271.143 276.471 271.143 C 276.722 271.143 276.968 271.179 277.218 271.179 C 279.095 262.079 282.469 253.545 286.993 245.776 C 278.622 208.805 257.9 176.604 229.405 153.791 C 216.491 170.793 208.824 191.979 208.824 214.952 C 208.835 243.002 220.256 268.394 238.702 286.752 Z" transform="matrix(0.999980926514, 0.00612499984, -0.00612499984, 0.999980926514, -0.000014763329, -0.000013029994)"/>
  <path style="fill: rgb(178, 215, 221); transform-origin: 426.179px 257.384px;" d="M 432.608 274.112 C 435.541 274.112 438.446 274.222 441.323 274.44 C 438.774 261.117 433.113 248.924 425.148 238.623 C 422.619 252.092 417.767 264.736 411.034 276.145 C 418.025 274.826 425.234 274.112 432.608 274.112 Z" transform="matrix(0.999980926514, 0.00612499984, -0.00612499984, 0.999980926514, -0.000025502517, -0.000015233646)"/>
  <path style="fill: rgb(245, 245, 245); transform-origin: 325.126px 332.003px;" d="M 324.84 332.038 C 325.032 332.014 325.223 331.991 325.411 331.968 C 325.216 331.991 325.028 332.014 324.84 332.038 Z" transform="matrix(0.999980926725, 0.006124999906, -0.006124999793, 0.999980926372, -0.000019543702, -0.000019636528)"/>
  <path style="fill: rgb(255, 227, 153); transform-origin: 329.855px 321.526px;" d="M 312.3 317.784 C 316.069 322.285 319.377 327.16 322.149 332.371 C 323.068 332.277 323.998 332.187 324.905 332.067 C 325.097 332.043 325.288 332.02 325.476 331.997 C 327.083 331.774 328.682 331.532 330.281 331.255 C 330.989 331.13 331.685 331.014 332.389 330.877 C 336.674 323.603 341.714 316.828 347.41 310.681 C 336.494 315.003 324.675 317.495 312.3 317.784 Z" transform="matrix(0.999980926514, 0.00612499984, -0.00612499984, 0.999980926514, -0.000019894801, -0.000018865615)"/>
  <path style="fill: rgb(222, 235, 236); transform-origin: 329.855px 321.526px;" d="M 312.3 317.784 C 316.069 322.285 319.377 327.16 322.149 332.371 C 323.068 332.277 323.998 332.187 324.905 332.067 C 325.097 332.043 325.288 332.02 325.476 331.997 C 327.083 331.774 328.682 331.532 330.281 331.255 C 330.989 331.13 331.685 331.014 332.389 330.877 C 336.674 323.603 341.714 316.828 347.41 310.681 C 336.494 315.003 324.675 317.495 312.3 317.784 Z" transform="matrix(0.999980926514, 0.00612499984, -0.00612499984, 0.999980926514, -0.000019894801, -0.000018865615)"/>
  <path style="fill: rgb(178, 215, 221); transform-origin: 406.089px 254.016px;" d="M 411.634 224.635 C 409.937 247.05 400.952 267.417 387.009 283.397 C 394.641 280.104 402.692 277.617 411.051 276.026 C 417.795 264.617 422.64 251.973 425.169 238.504 C 421.197 233.375 416.658 228.719 411.634 224.635 Z" transform="matrix(0.999980926514, 0.00612499984, -0.00612499984, 0.999980926514, -0.000024224976, -0.000015056934)"/>
  <g transform="matrix(0.9774390459060669, 0.005987000185996294, -0.005972000304609537, 0.9750500321388245, 1.6347240209579468, -1.44281804561615)" style="">
    <path style="fill:#FFD464;" d="M338.236,339.132c-1.624,0.288-3.256,0.54-4.912,0.756c-0.196,0.024-0.388,0.048-0.584,0.076 c-0.932,0.12-1.86,0.252-2.804,0.356c0.828,1.564,1.608,3.148,2.344,4.764L338.236,339.132 C338.244,339.132,338.244,339.132,338.236,339.132z"/>
    <path style="fill:#FFD464;" d="M293.332,252.988c2.74,12.096,4.232,24.68,4.232,37.62c0,5.104-0.26,10.148-0.712,15.14 c8.764,5.172,16.532,11.828,22.996,19.576c12.66-0.296,24.752-2.852,35.912-7.284c11.188-12.092,24.82-21.844,40.096-28.452 c14.252-16.396,23.456-37.28,25.192-60.268c-14.712-11.984-33.408-19.172-53.772-19.172 C335.744,210.136,308.228,227.364,293.332,252.988z"/>
  </g>
  <path id="SVGCleanerId_0" style="fill: rgb(245, 245, 245); transform-origin: 300.075px 332.441px;" d="M 301.003 332.509 C 300.385 332.462 299.767 332.427 299.146 332.372 C 299.756 332.427 300.385 332.465 301.003 332.509 Z" transform="matrix(0.999980926507, 0.00612499986, -0.006124999813, 0.999980926535, -0.000018117875, -0.000019638757)"/>
  <g transform="matrix(0.9774390459060669, 0.005987000185996294, -0.005972000304609537, 0.9750500321388245, 1.6347240209579468, -1.44281804561615)" style="">
    <path id="SVGCleanerId_0_1_" style="fill:#F5F5F5;" d="M308.36,340.608c-0.632-0.048-1.264-0.084-1.9-0.14 C307.084,340.524,307.728,340.564,308.36,340.608z"/>
  </g>
  <path id="SVGCleanerId_1" style="fill: rgb(245, 245, 245); transform-origin: 319.549px 332.56px;" d="M 320.474 332.491 C 319.86 332.546 319.242 332.581 318.624 332.628 C 319.242 332.584 319.86 332.546 320.474 332.491 Z" transform="matrix(0.999980926528, 0.006124999812, -0.006124999809, 0.999980926496, -0.000019025537, -0.000019795052)"/>
  <g transform="matrix(0.9774390459060669, 0.005987000185996294, -0.005972000304609537, 0.9750500321388245, 1.6347240209579468, -1.44281804561615)" style="">
    <path id="SVGCleanerId_1_1_" style="fill:#F5F5F5;" d="M328.28,340.468c-0.628,0.056-1.26,0.092-1.892,0.14 C327.02,340.564,327.652,340.524,328.28,340.468z"/>
  </g>
  <path style="fill: rgb(245, 245, 245); transform-origin: 275.327px 340.305px;" d="M 297.544 368.945 C 303.886 367.178 310.545 366.164 317.457 366.164 C 317.801 366.164 318.138 366.215 318.493 366.219 C 320.253 357.685 322.947 349.506 326.438 341.764 C 325.789 340.056 325.093 338.375 324.339 336.729 L 309.763 351.266 L 289.369 330.917 C 272.275 327.914 256.468 321.221 242.795 311.665 C 242.799 311.665 242.799 311.665 242.803 311.665 L 224.278 311.665 C 224.255 311.743 224.235 311.813 224.216 311.887 C 255.776 319.884 282.202 340.898 297.544 368.945 Z" transform="matrix(0.999980926514, 0.00612499984, -0.00612499984, 0.999980926514, -0.000016473166, -0.000020013533)"/>
  <path style="fill: rgb(214, 233, 231); transform-origin: 275.327px 340.305px;" d="M 297.544 368.945 C 303.886 367.178 310.545 366.164 317.457 366.164 C 317.801 366.164 318.138 366.215 318.493 366.219 C 320.253 357.685 322.947 349.506 326.438 341.764 C 325.789 340.056 325.093 338.375 324.339 336.729 L 309.763 351.266 L 289.369 330.917 C 272.275 327.914 256.468 321.221 242.795 311.665 C 242.799 311.665 242.799 311.665 242.803 311.665 L 224.278 311.665 C 224.255 311.743 224.235 311.813 224.216 311.887 C 255.776 319.884 282.202 340.898 297.544 368.945 Z" transform="matrix(0.999980926514, 0.00612499984, -0.00612499984, 0.999980926514, -0.000016473166, -0.000020013533)"/>
  <path id="SVGCleanerId_2" style="fill: rgb(245, 245, 245); transform-origin: 294.507px 331.815px;" d="M 294.79 331.85 C 294.603 331.826 294.407 331.803 294.223 331.78 C 294.407 331.803 294.603 331.818 294.79 331.85 Z" transform="matrix(0.999980926292, 0.006125000098, -0.006124999528, 0.999980926733, -0.000017838465, -0.00001973282)"/>
  <g transform="matrix(0.9774390459060669, 0.005987000185996294, -0.005972000304609537, 0.9750500321388245, 1.6347240209579468, -1.44281804561615)" style="">
    <path id="SVGCleanerId_2_1_" style="fill:#F5F5F5;" d="M302,339.968c-0.192-0.024-0.392-0.048-0.58-0.072 C301.608,339.92,301.808,339.936,302,339.968z"/>
  </g>
  <path id="SVGCleanerId_3" style="fill: rgb(245, 245, 245); transform-origin: 312.553px 332.881px;" d="M 315.295 332.811 C 313.469 332.892 311.643 332.951 309.81 332.951 C 311.647 332.951 313.469 332.896 315.295 332.811 Z" transform="matrix(0.99998092652, 0.00612499984, -0.00612499984, 0.999980926522, -0.000018707654, -0.000019654969)"/>
  <g transform="matrix(0.9774390459060669, 0.005987000185996294, -0.005972000304609537, 0.9750500321388245, 1.6347240209579468, -1.44281804561615)" style="">
    <path id="SVGCleanerId_3_1_" style="fill:#F5F5F5;" d="M322.984,340.84c-1.868,0.084-3.736,0.144-5.612,0.144 C319.252,340.984,321.116,340.928,322.984,340.84z"/>
  </g>
  <path id="SVGCleanerId_4" style="fill: rgb(245, 245, 245); transform-origin: 307.067px 332.848px;" d="M 309.81 332.918 C 307.968 332.918 306.142 332.863 304.324 332.778 C 306.138 332.863 307.968 332.918 309.81 332.918 Z" transform="matrix(0.999980926499, 0.006124999857, -0.00612499983, 0.999980926501, -0.000018384162, -0.000019908722)"/>
  <g transform="matrix(0.9774390459060669, 0.005987000185996294, -0.005972000304609537, 0.9750500321388245, 1.6347240209579468, -1.44281804561615)" style="">
    <path id="SVGCleanerId_4_1_" style="fill:#F5F5F5;" d="M317.372,340.984c-1.884,0-3.752-0.056-5.612-0.144 C313.616,340.928,315.488,340.984,317.372,340.984z"/>
  </g>
  <g transform="matrix(0.9774390459060669, 0.005987000185996294, -0.005972000304609537, 0.9750500321388245, 1.6347240209579468, -1.44281804561615)" style="">
    <path id="SVGCleanerId_5" style="fill:#FFE399;" d="M301.42,339.9c0.188,0.024,0.388,0.048,0.58,0.072 c1.48,0.192,2.964,0.36,4.46,0.5c0.624,0.056,1.264,0.092,1.9,0.14c1.128,0.088,2.256,0.18,3.4,0.236 c1.868,0.084,3.736,0.144,5.612,0.144s3.752-0.06,5.612-0.144c1.14-0.056,2.272-0.144,3.408-0.236 c0.628-0.048,1.26-0.084,1.892-0.14c0.556-0.056,1.092-0.124,1.64-0.188c-2.836-5.336-6.22-10.344-10.076-14.96 c-0.824,0.02-1.644,0.064-2.472,0.064c-28.676,0-54.632-11.6-73.444-30.372c-3.688,3.692-6.844,7.904-9.36,12.524 c4.464,4.288,9.204,8.296,14.288,11.856c13.988,9.796,30.16,16.664,47.648,19.748l0,0C298.132,339.42,299.772,339.672,301.42,339.9 z"/>
  </g>
  <g transform="matrix(0.9774390459060669, 0.005987000185996294, -0.005972000304609537, 0.9750500321388245, 1.6347240209579468, -1.44281804561615)" style="">
    <path id="SVGCleanerId_5_1_" style="fill:#F5F5F5;" d="M301.42,339.9c0.188,0.024,0.388,0.048,0.58,0.072 c1.48,0.192,2.964,0.36,4.46,0.5c0.624,0.056,1.264,0.092,1.9,0.14c1.128,0.088,2.256,0.18,3.4,0.236 c1.868,0.084,3.736,0.144,5.612,0.144s3.752-0.06,5.612-0.144c1.14-0.056,2.272-0.144,3.408-0.236 c0.628-0.048,1.26-0.084,1.892-0.14c0.556-0.056,1.092-0.124,1.64-0.188c-2.836-5.336-6.22-10.344-10.076-14.96 c-0.824,0.02-1.644,0.064-2.472,0.064c-28.676,0-54.632-11.6-73.444-30.372c-3.688,3.692-6.844,7.904-9.36,12.524 c4.464,4.288,9.204,8.296,14.288,11.856c13.988,9.796,30.16,16.664,47.648,19.748l0,0C298.132,339.42,299.772,339.672,301.42,339.9 z"/>
  </g>
  <g transform="matrix(0.9774390459060669, 0.005987000185996294, -0.005972000304609537, 0.9750500321388245, 1.6347240209579468, -1.44281804561615)" style="">
    <path id="SVGCleanerId_5_2_" style="fill:#DEEBEC;" d="M301.42,339.9c0.188,0.024,0.388,0.048,0.58,0.072 c1.48,0.192,2.964,0.36,4.46,0.5c0.624,0.056,1.264,0.092,1.9,0.14c1.128,0.088,2.256,0.18,3.4,0.236 c1.868,0.084,3.736,0.144,5.612,0.144s3.752-0.06,5.612-0.144c1.14-0.056,2.272-0.144,3.408-0.236 c0.628-0.048,1.26-0.084,1.892-0.14c0.556-0.056,1.092-0.124,1.64-0.188c-2.836-5.336-6.22-10.344-10.076-14.96 c-0.824,0.02-1.644,0.064-2.472,0.064c-28.676,0-54.632-11.6-73.444-30.372c-3.688,3.692-6.844,7.904-9.36,12.524 c4.464,4.288,9.204,8.296,14.288,11.856c13.988,9.796,30.16,16.664,47.648,19.748l0,0C298.132,339.42,299.772,339.672,301.42,339.9 z"/>
  </g>
  <path style="fill: rgb(255, 212, 100); transform-origin: 306.834px 341.289px;" d="M 320.42 332.414 C 319.806 332.473 319.188 332.504 318.57 332.551 C 317.464 332.632 316.357 332.726 315.235 332.781 C 313.413 332.862 311.587 332.921 309.75 332.921 C 307.912 332.921 306.082 332.87 304.268 332.781 C 303.154 332.73 302.051 332.636 300.941 332.551 C 300.327 332.504 299.702 332.469 299.08 332.414 C 297.622 332.282 296.171 332.113 294.725 331.927 C 294.538 331.903 294.346 331.88 294.155 331.857 C 292.544 331.638 290.948 331.392 289.349 331.115 L 309.742 351.463 L 324.318 336.923 C 323.598 335.347 322.844 333.799 322.035 332.278 C 321.507 332.329 320.963 332.363 320.42 332.414 Z" transform="matrix(0.999980926514, 0.00612499984, -0.00612499984, 0.999980926514, -0.00001857491, -0.000020185645)"/>
  <path style="fill: rgb(245, 245, 245); transform-origin: 306.834px 341.289px;" d="M 320.42 332.414 C 319.806 332.473 319.188 332.504 318.57 332.551 C 317.464 332.632 316.357 332.726 315.235 332.781 C 313.413 332.862 311.587 332.921 309.75 332.921 C 307.912 332.921 306.082 332.87 304.268 332.781 C 303.154 332.73 302.051 332.636 300.941 332.551 C 300.327 332.504 299.702 332.469 299.08 332.414 C 297.622 332.282 296.171 332.113 294.725 331.927 C 294.538 331.903 294.346 331.88 294.155 331.857 C 292.544 331.638 290.948 331.392 289.349 331.115 L 309.742 351.463 L 324.318 336.923 C 323.598 335.347 322.844 333.799 322.035 332.278 C 321.507 332.329 320.963 332.363 320.42 332.414 Z" transform="matrix(0.999980926514, 0.00612499984, -0.00612499984, 0.999980926514, -0.00001857491, -0.000020185645)"/>
  <path style="fill: rgb(222, 235, 236); transform-origin: 309.753px 341.303px;" d="M 330.151 331.128 C 328.564 331.409 326.969 331.655 325.35 331.866 C 325.158 331.889 324.971 331.912 324.779 331.94 C 323.868 332.056 322.961 332.185 322.038 332.287 C 321.503 332.341 320.963 332.376 320.42 332.427 C 319.806 332.486 319.188 332.521 318.57 332.568 C 317.464 332.65 316.357 332.739 315.235 332.794 C 313.413 332.879 311.587 332.934 309.75 332.934 C 307.912 332.934 306.082 332.879 304.268 332.794 C 303.154 332.743 302.051 332.65 300.941 332.568 C 300.327 332.521 299.702 332.486 299.08 332.427 C 297.622 332.295 296.171 332.126 294.725 331.94 C 294.538 331.912 294.346 331.889 294.155 331.866 C 292.544 331.651 290.949 331.401 289.349 331.128 L 309.75 351.477 L 324.326 336.932 L 330.151 331.128 C 330.159 331.128 330.159 331.128 330.151 331.128 Z" transform="matrix(0.999980926514, 0.00612499984, -0.00612499984, 0.999980926514, -0.00001859579, -0.000020170635)"/>
  <g transform="matrix(0.9774390459060669, 0.005987000185996294, -0.005972000304609537, 0.9750500321388245, 1.6347240209579468, -1.44281804561615)" style="">
    <path id="SVGCleanerId_6" style="fill:#FFD464;" d="M306.46,340.468c-1.496-0.14-2.98-0.308-4.46-0.5 C303.48,340.16,304.964,340.332,306.46,340.468z"/>
  </g>
  <g transform="matrix(0.9774390459060669, 0.005987000185996294, -0.005972000304609537, 0.9750500321388245, 1.6347240209579468, -1.44281804561615)" style="">
    <g>
      <path id="SVGCleanerId_6_1_" style="fill:#F5F5F5;" d="M306.46,340.468c-1.496-0.14-2.98-0.308-4.46-0.5 C303.48,340.16,304.964,340.332,306.46,340.468z"/>
    </g>
    <g>
      <path id="SVGCleanerId_6_2_" style="fill:#F5F5F5;" d="M306.46,340.468c-1.496-0.14-2.98-0.308-4.46-0.5 C303.48,340.16,304.964,340.332,306.46,340.468z"/>
    </g>
  </g>
  <path style="fill: rgb(255, 212, 100); transform-origin: 321.284px 332.411px;" d="M 322.093 332.362 C 322.093 332.35 322.086 332.334 322.078 332.319 C 321.538 332.381 321.014 332.447 320.475 332.502 C 321.018 332.451 321.562 332.417 322.093 332.362 Z" transform="matrix(0.999980926497, 0.006124999829, -0.006124999838, 0.999980926479, -0.00001908109, -0.00001963513)"/>
  <path id="SVGCleanerId_7" style="fill: rgb(245, 245, 245); transform-origin: 321.284px 332.411px;" d="M 322.093 332.362 C 322.093 332.35 322.086 332.334 322.078 332.319 C 321.538 332.381 321.014 332.447 320.475 332.502 C 321.018 332.451 321.562 332.417 322.093 332.362 Z" transform="matrix(0.999980926497, 0.006124999829, -0.006124999838, 0.999980926479, -0.00001908109, -0.00001963513)"/>
  <g transform="matrix(0.9774390459060669, 0.005987000185996294, -0.005972000304609537, 0.9750500321388245, 1.6347240209579468, -1.44281804561615)" style="">
    <path id="SVGCleanerId_7_1_" style="fill:#F5F5F5;" d="M329.936,340.324c0-0.012-0.008-0.028-0.016-0.044 c-0.552,0.064-1.088,0.132-1.64,0.188C328.836,340.416,329.392,340.38,329.936,340.324z"/>
  </g>
  <path style="fill: rgb(255, 212, 100); transform-origin: 302.658px 332.637px;" d="M 304.321 332.75 C 303.207 332.691 302.104 332.609 300.994 332.524 C 302.104 332.609 303.207 332.699 304.321 332.75 Z" transform="matrix(0.999980926517, 0.006124999828, -0.006124999834, 0.999980926505, -0.000018308643, -0.000019729404)"/>
  <path style="fill: rgb(245, 245, 245); transform-origin: 302.658px 332.637px;" d="M 304.321 332.75 C 303.207 332.691 302.104 332.609 300.994 332.524 C 302.104 332.609 303.207 332.699 304.321 332.75 Z" transform="matrix(0.999980926517, 0.006124999828, -0.006124999834, 0.999980926505, -0.000018308643, -0.000019729404)"/>
  <g transform="matrix(0.9774390459060669, 0.005987000185996294, -0.005972000304609537, 0.9750500321388245, 1.6347240209579468, -1.44281804561615)" style="">
    <path style="fill:#FFD464;" d="M326.392,340.608c-1.132,0.088-2.26,0.18-3.408,0.236 C324.124,340.788,325.256,340.696,326.392,340.608z"/>
    <g>
      <path id="SVGCleanerId_8" style="fill:#FFD464;" d="M296.508,339.132L296.508,339.132c1.628,0.288,3.264,0.54,4.916,0.756 C299.772,339.672,298.132,339.42,296.508,339.132z"/>
    </g>
  </g>
  <g transform="matrix(0.9774390459060669, 0.005987000185996294, -0.005972000304609537, 0.9750500321388245, 1.6347240209579468, -1.44281804561615)" style="">
    <g>
      <path id="SVGCleanerId_8_1_" style="fill:#F5F5F5;" d="M296.508,339.132L296.508,339.132c1.628,0.288,3.264,0.54,4.916,0.756 C299.772,339.672,298.132,339.42,296.508,339.132z"/>
    </g>
    <g>
      <path id="SVGCleanerId_8_2_" style="fill:#F5F5F5;" d="M296.508,339.132L296.508,339.132c1.628,0.288,3.264,0.54,4.916,0.756 C299.772,339.672,298.132,339.42,296.508,339.132z"/>
    </g>
  </g>
  <path style="fill: rgb(255, 212, 100); transform-origin: 233.753px 305.675px;" d="M 224.49 311.422 L 243.015 311.422 C 243.011 311.422 243.011 311.414 243.007 311.414 C 238.042 307.947 233.365 304.102 229.006 299.928 C 227.063 303.52 225.565 307.381 224.49 311.422 Z" transform="matrix(0.999980926514, 0.00612499984, -0.00612499984, 0.999980926514, -0.000014174466, -0.000018071782)"/>
  <path style="fill: rgb(245, 245, 245); transform-origin: 233.753px 305.675px;" d="M 224.49 311.422 L 243.015 311.422 C 243.011 311.422 243.011 311.414 243.007 311.414 C 238.042 307.947 233.365 304.102 229.006 299.928 C 227.063 303.52 225.565 307.381 224.49 311.422 Z" transform="matrix(0.999980926514, 0.00612499984, -0.00612499984, 0.999980926514, -0.000014174466, -0.000018071782)"/>
  <g transform="matrix(0.9774390459060669, 0.005987000185996294, -0.005972000304609537, 0.9750500321388245, 1.6347240209579468, -1.44281804561615)" style="">
    <path id="SVGCleanerId_9" style="fill:#FFD464;" d="M234.536,307.608c4.46,4.28,9.248,8.224,14.324,11.78 c-5.084-3.564-9.824-7.572-14.288-11.86C234.564,307.564,234.556,307.584,234.536,307.608z"/>
  </g>
  <g transform="matrix(0.9774390459060669, 0.005987000185996294, -0.005972000304609537, 0.9750500321388245, 1.6347240209579468, -1.44281804561615)" style="">
    <g>
      <path id="SVGCleanerId_9_1_" style="fill:#F5F5F5;" d="M234.536,307.608c4.46,4.28,9.248,8.224,14.324,11.78 c-5.084-3.564-9.824-7.572-14.288-11.86C234.564,307.564,234.556,307.584,234.536,307.608z"/>
    </g>
    <g>
      <path id="SVGCleanerId_9_2_" style="fill:#F5F5F5;" d="M234.536,307.608c4.46,4.28,9.248,8.224,14.324,11.78 c-5.084-3.564-9.824-7.572-14.288-11.86C234.564,307.564,234.556,307.584,234.536,307.608z"/>
    </g>
  </g>
  <path style="fill: rgb(255, 212, 100); transform-origin: 275.437px 282.213px;" d="M 312.539 317.45 C 306.221 309.891 298.628 303.408 290.061 298.357 C 290.495 293.49 290.757 288.576 290.757 283.595 C 290.757 270.985 289.299 258.715 286.621 246.917 C 282.097 254.686 278.719 263.22 276.846 272.32 C 276.592 272.32 276.349 272.284 276.103 272.284 C 261.347 272.284 247.992 278.248 238.334 287.893 C 256.722 306.189 282.093 317.509 310.119 317.509 C 310.932 317.512 311.733 317.469 312.539 317.45 Z" transform="matrix(0.999980926514, 0.00612499984, -0.00612499984, 0.999980926514, -0.000016448084, -0.000016593313)"/>
  <path style="fill: rgb(245, 245, 245); transform-origin: 275.437px 282.213px;" d="M 312.539 317.45 C 306.221 309.891 298.628 303.408 290.061 298.357 C 290.495 293.49 290.757 288.576 290.757 283.595 C 290.757 270.985 289.299 258.715 286.621 246.917 C 282.097 254.686 278.719 263.22 276.846 272.32 C 276.592 272.32 276.349 272.284 276.103 272.284 C 261.347 272.284 247.992 278.248 238.334 287.893 C 256.722 306.189 282.093 317.509 310.119 317.509 C 310.932 317.512 311.733 317.469 312.539 317.45 Z" transform="matrix(0.999980926514, 0.00612499984, -0.00612499984, 0.999980926514, -0.000016448084, -0.000016593313)"/>
  <path style="fill: rgb(222, 235, 236); transform-origin: 275.437px 282.213px;" d="M 312.539 317.45 C 306.221 309.891 298.628 303.408 290.061 298.357 C 290.495 293.49 290.757 288.576 290.757 283.595 C 290.757 270.985 289.299 258.715 286.621 246.917 C 282.097 254.686 278.719 263.22 276.846 272.32 C 276.592 272.32 276.349 272.284 276.103 272.284 C 261.347 272.284 247.992 278.248 238.334 287.893 C 256.722 306.189 282.093 317.509 310.119 317.509 C 310.932 317.512 311.733 317.469 312.539 317.45 Z" transform="matrix(0.999980926514, 0.00612499984, -0.00612499984, 0.999980926514, -0.000016448084, -0.000016593313)"/>
  <g transform="matrix(0.9774390459060669, 0.005987000185996294, -0.005972000304609537, 0.9750500321388245, 1.6347240209579468, -1.44281804561615)" style="">
    <path style="fill:#F5F5F5;" d="M325.312,502.408c-2.284,0.64-4.584,1.248-6.892,1.828 C320.736,503.652,323.028,503.044,325.312,502.408z"/>
    <path style="fill:#F5F5F5;" d="M336.8,498.876c-2.604,0.868-5.232,1.696-7.872,2.484C331.58,500.58,334.196,499.744,336.8,498.876z "/>
    <path style="fill:#F5F5F5;" d="M313.804,505.356c-1.92,0.448-3.868,0.852-5.808,1.252 C309.936,506.212,311.884,505.8,313.804,505.356z"/>
    <path style="fill:#F5F5F5;" d="M302.272,507.752c-1.456,0.268-2.928,0.5-4.4,0.74C299.344,508.252,300.816,508.02,302.272,507.752z "/>
  </g>
  <path style="fill: rgb(179, 216, 220); transform-origin: 403.608px 378.654px;" d="M 496.022 293.486 C 479.917 282.686 460.986 275.837 440.58 274.304 C 441.581 279.515 442.121 284.897 442.121 290.4 C 442.121 292.959 441.988 295.491 441.765 297.987 C 454.73 305.627 463.453 319.544 463.453 335.593 C 463.453 359.798 443.665 379.354 419.26 379.354 L 331.329 379.354 C 329.832 397.365 322.7 413.774 311.667 426.84 C 311.639 430.143 311.475 433.404 311.193 436.634 C 327.591 446.294 339.051 463.214 340.924 483.003 C 421.023 451.626 480.969 380.251 496.022 293.486 Z" transform="matrix(0.999980926514, 0.00612499984, -0.00612499984, 0.999980926514, -0.000024141948, -0.000022489416)"/>
  <g transform="matrix(0.9774390459060669, 0.005987000185996294, -0.005972000304609537, 0.9750500321388245, 1.6347240209579468, -1.44281804561615)" style="">
    <path style="fill:#F5F5F5;" d="M348.28,494.752c-2.916,1.132-5.868,2.22-8.844,3.248 C342.416,496.968,345.364,495.884,348.28,494.752z"/>
    <path style="fill:#F5F5F5;" d="M290.72,509.608c-0.56,0.076-1.116,0.124-1.672,0.2C289.6,509.744,290.16,509.684,290.72,509.608z"/>
    <path style="fill:#F5F5F5;" d="M319.572,435.96c0,0.248-0.016,0.492-0.016,0.74c11.288-13.4,18.584-30.228,20.116-48.7h-30 C316.024,402.692,319.572,418.908,319.572,435.96z"/>
  </g>
  <path style="fill: rgb(205, 228, 230); transform-origin: 316.517px 402.564px;" d="M 311.532 425.585 C 311.532 425.827 311.516 426.065 311.516 426.307 C 322.55 413.241 329.682 396.832 331.179 378.821 L 301.855 378.821 C 308.064 393.147 311.532 408.958 311.532 425.585 Z" transform="matrix(0.999980926514, 0.00612499984, -0.00612499984, 0.999980926514, -0.000018835983, -0.000023940742)"/>
  <path style="fill: rgb(245, 245, 245); transform-origin: 395.147px 326.617px;" d="M 410.606 275.963 C 409.058 278.585 407.412 281.138 405.664 283.623 L 405.664 312.411 L 376.806 312.411 C 376.813 312.411 376.813 312.411 376.821 312.403 C 363.708 321.57 348.635 328.114 332.347 331.281 C 330.208 334.908 328.257 338.648 326.521 342.51 C 330.017 351.75 331.968 361.738 331.968 372.218 C 331.968 374.609 331.843 376.973 331.647 379.304 L 419.579 379.304 C 443.984 379.304 463.772 359.745 463.772 335.544 C 463.772 319.502 455.057 305.582 442.084 297.942 C 442.307 295.434 442.44 292.906 442.44 290.347 C 442.44 284.844 441.9 279.469 440.899 274.259 C 438.022 274.044 435.117 273.931 432.184 273.931 C 424.81 273.923 417.601 274.638 410.606 275.963 Z" transform="matrix(0.999980926514, 0.00612499984, -0.00612499984, 0.999980926514, -0.000023715436, -0.000019417025)"/>
  <path style="fill: rgb(205, 228, 230); transform-origin: 394.097px 326.611px;" d="M 442.084 297.938 C 442.307 295.431 442.44 292.903 442.44 290.344 C 442.44 284.841 441.9 279.466 440.899 274.256 C 438.022 274.041 435.117 273.928 432.184 273.928 C 424.81 273.928 417.605 274.642 410.606 275.96 C 409.058 278.582 407.412 281.135 405.664 283.62 L 405.664 312.404 L 376.806 312.404 C 376.813 312.404 376.813 312.404 376.821 312.396 C 363.708 321.563 348.635 328.107 332.347 331.274 C 331.643 331.411 330.943 331.523 330.239 331.652 L 324.422 337.46 C 325.168 339.114 325.872 340.791 326.521 342.494 C 330.017 351.735 331.968 361.727 331.968 372.211 C 331.968 374.598 331.843 376.958 331.647 379.294 L 419.579 379.294 C 443.984 379.294 463.772 359.738 463.772 335.533 C 463.772 319.491 455.049 305.571 442.084 297.938 Z" transform="matrix(0.999980926514, 0.00612499984, -0.00612499984, 0.999980926514, -0.000023436973, -0.000019236236)"/>
  <g transform="matrix(0.9774390459060669, 0.005987000185996294, -0.005972000304609537, 0.9750500321388245, 1.6347240209579468, -1.44281804561615)" style="">
    <path id="SVGCleanerId_10" style="fill:#FFE399;" d="M355.756,318.036c-5.828,6.308-10.984,13.252-15.368,20.716 c16.664-3.252,32.084-9.968,45.5-19.36c11.472-8.044,21.464-18.04,29.508-29.516c1.78-2.548,3.468-5.168,5.056-7.856 c-8.564,1.624-16.788,4.18-24.596,7.56C385.04,302.012,371.328,311.848,355.756,318.036z"/>
  </g>
  <g transform="matrix(0.9774390459060669, 0.005987000185996294, -0.005972000304609537, 0.9750500321388245, 1.6347240209579468, -1.44281804561615)" style="">
    <path id="SVGCleanerId_10_1_" style="fill:#F5F5F5;" d="M355.756,318.036c-5.828,6.308-10.984,13.252-15.368,20.716 c16.664-3.252,32.084-9.968,45.5-19.36c11.472-8.044,21.464-18.04,29.508-29.516c1.78-2.548,3.468-5.168,5.056-7.856 c-8.564,1.624-16.788,4.18-24.596,7.56C385.04,302.012,371.328,311.848,355.756,318.036z"/>
  </g>
  <g transform="matrix(0.9774390459060669, 0.005987000185996294, -0.005972000304609537, 0.9750500321388245, 1.6347240209579468, -1.44281804561615)" style="">
    <path id="SVGCleanerId_10_2_" style="fill:#CDE4E6;" d="M 382.983 303.652 C 377.155 309.96 344.772 331.288 340.388 338.752 C 357.052 335.5 372.472 328.784 385.888 319.392 C 397.36 311.348 407.352 301.352 415.396 289.876 C 417.176 287.328 418.864 284.708 420.452 282.02 C 411.888 283.644 403.664 286.2 395.856 289.58 C 385.04 302.012 398.555 297.464 382.983 303.652 Z"/>
  </g>
  <path style="fill: rgb(255, 212, 100); transform-origin: 391.418px 297.992px;" d="M 377 312.38 C 377 312.38 376.992 312.38 376.992 312.388 L 405.843 312.388 L 405.843 283.596 C 397.988 294.791 388.217 304.537 377 312.38 Z" transform="matrix(0.999980926514, 0.00612499984, -0.00612499984, 0.999980926514, -0.000023592154, -0.000017626234)"/>
  <path style="fill: rgb(245, 245, 245); transform-origin: 391.418px 297.992px;" d="M 377 312.38 C 377 312.38 376.992 312.38 376.992 312.388 L 405.843 312.388 L 405.843 283.596 C 397.988 294.791 388.217 304.537 377 312.38 Z" transform="matrix(0.999980926514, 0.00612499984, -0.00612499984, 0.999980926514, -0.000023592154, -0.000017626234)"/>
  <path style="fill: rgb(205, 228, 230); transform-origin: 391.418px 297.992px;" d="M 377 312.38 C 377 312.38 376.992 312.38 376.992 312.388 L 405.843 312.388 L 405.843 283.596 C 397.988 294.791 388.217 304.537 377 312.38 Z" transform="matrix(0.999980926514, 0.00612499984, -0.00612499984, 0.999980926514, -0.000023592154, -0.000017626234)"/>
  <g transform="matrix(0.9774390459060669, 0.005987000185996294, -0.005972000304609537, 0.9750500321388245, 1.6347240209579468, -1.44281804561615)" style="">
    <path id="SVGCleanerId_11" style="fill:#FFD464;" d="M385.892,319.392c11.476-8.044,21.472-18.04,29.508-29.516 C407.36,301.352,397.368,311.348,385.892,319.392z"/>
  </g>
  <g transform="matrix(0.9774390459060669, 0.005987000185996294, -0.005972000304609537, 0.9750500321388245, 1.6347240209579468, -1.44281804561615)" style="">
    <g>
      <path id="SVGCleanerId_11_1_" style="fill:#F5F5F5;" d="M385.892,319.392c11.476-8.044,21.472-18.04,29.508-29.516 C407.36,301.352,397.368,311.348,385.892,319.392z"/>
    </g>
    <g>
      <path id="SVGCleanerId_11_2_" style="fill:#F5F5F5;" d="M385.892,319.392c11.476-8.044,21.472-18.04,29.508-29.516 C407.36,301.352,397.368,311.348,385.892,319.392z"/>
    </g>
  </g>
  <path style="fill: rgb(255, 212, 100); transform-origin: 367.144px 297.036px;" d="M 347.549 310.909 C 362.77 304.875 376.165 295.289 386.738 283.163 C 371.814 289.606 358.477 299.111 347.549 310.909 Z" transform="matrix(0.999980926514, 0.00612499984, -0.00612499984, 0.999980926514, -0.000022093382, -0.000017612344)"/>
  <path style="fill: rgb(245, 245, 245); transform-origin: 367.144px 297.036px;" d="M 347.549 310.909 C 362.77 304.875 376.165 295.289 386.738 283.163 C 371.814 289.606 358.477 299.111 347.549 310.909 Z" transform="matrix(0.999980926514, 0.00612499984, -0.00612499984, 0.999980926514, -0.000022093382, -0.000017612344)"/>
  <path style="fill: rgb(178, 215, 221); transform-origin: 349.167px 261.746px;" d="M 359.021 205.59 C 328.192 205.59 301.304 222.388 286.748 247.369 C 289.426 259.167 290.884 271.433 290.884 284.047 C 290.884 289.028 290.63 293.942 290.188 298.809 C 298.755 303.86 306.348 310.343 312.666 317.902 C 325.041 317.613 337.877 317.102 347.768 310.799 C 361.881 301.807 373.638 287.861 386.96 283.053 C 406.925 275.846 409.888 246.706 411.585 224.291 C 397.204 212.602 378.93 205.59 359.021 205.59 Z" transform="matrix(0.999980926514, 0.00612499984, -0.00612499984, 0.999980926514, -0.000020990479, -0.000015574745)"/>
  <g transform="matrix(0.9774390459060669, 0.005987000185996294, -0.005972000304609537, 0.9750500321388245, 1.6347240209579468, -1.44281804561615)" style="">
    <g>
      <path id="SVGCleanerId_12" style="fill:#F5F5F5;" d="M334.428,350.256c-3.584,7.936-6.336,16.328-8.132,25.08 c-0.36-0.004-0.704-0.056-1.064-0.056c-7.068,0-13.88,1.044-20.368,2.852c1.752,3.2,3.344,6.496,4.8,9.868h30 c0.2-2.4,0.328-4.82,0.328-7.264C340,369.984,338.004,359.736,334.428,350.256z"/>
    </g>
    <g>
      <path id="SVGCleanerId_12_1_" style="fill:#F5F5F5;" d="M334.428,350.256c-3.584,7.936-6.336,16.328-8.132,25.08 c-0.36-0.004-0.704-0.056-1.064-0.056c-7.068,0-13.88,1.044-20.368,2.852c1.752,3.2,3.344,6.496,4.8,9.868h30 c0.2-2.4,0.328-4.82,0.328-7.264C340,369.984,338.004,359.736,334.428,350.256z"/>
    </g>
  </g>
  <g transform="matrix(0.9774390459060669, 0.005987000185996294, -0.005972000304609537, 0.9750500321388245, 1.6347240209579468, -1.44281804561615)" style="">
    <path id="SVGCleanerId_12_2_" style="fill:#DEECEC;" d="M334.428,350.256c-3.584,7.936-6.336,16.328-8.132,25.08 c-0.36-0.004-0.704-0.056-1.064-0.056c-7.068,0-13.88,1.044-20.368,2.852c1.752,3.2,3.344,6.496,4.8,9.868h30 c0.2-2.4,0.328-4.82,0.328-7.264C340,369.984,338.004,359.736,334.428,350.256z"/>
  </g>
  <g transform="matrix(0.9774390459060669, 0.005987000185996294, -0.005972000304609537, 0.9750500321388245, 1.6347240209579468, -1.44281804561615)" style="">
    <path style="fill:#F5F5F5;" d="M297.884,508.492c-2.388,0.392-4.764,0.788-7.164,1.116 C293.116,509.28,295.496,508.892,297.884,508.492z"/>
    <path style="fill:#F5F5F5;" d="M328.928,501.356c-1.204,0.356-2.412,0.708-3.616,1.044 C326.524,502.064,327.736,501.72,328.928,501.356z"/>
    <path style="fill:#F5F5F5;" d="M339.436,497.996c-0.876,0.304-1.756,0.588-2.636,0.88 C337.68,498.584,338.572,498.296,339.436,497.996z"/>
    <path style="fill:#F5F5F5;" d="M307.996,506.608c-1.904,0.396-3.8,0.796-5.724,1.148 C304.196,507.4,306.092,507.008,307.996,506.608z"/>
    <path style="fill:#F5F5F5;" d="M349.484,494.312c0-0.004,0-0.008,0-0.016c-0.4,0.156-0.8,0.296-1.204,0.452 C348.684,494.592,349.084,494.468,349.484,494.312z"/>
    <path style="fill:#F5F5F5;" d="M318.42,504.236c-1.54,0.388-3.076,0.764-4.616,1.12 C315.352,504.996,316.892,504.616,318.42,504.236z"/>
  </g>
  <path style="fill: rgb(179, 216, 220); transform-origin: 195.048px 477.535px;" d="M 244.722 456.084 L 108.86 456.084 C 148.838 483.112 197.003 498.986 248.933 498.986 C 259.888 498.986 270.66 498.226 281.236 496.85 C 278.206 497.239 275.156 497.598 272.091 497.882 C 258.602 487.696 248.71 473.034 244.722 456.084 Z" transform="matrix(0.999980926514, 0.00612499984, -0.00612499984, 0.999980926514, -0.000011690018, -0.000028458067)"/>
  <path style="fill: rgb(245, 245, 245); transform-origin: 165.359px 381.798px;" d="M 243.345 439.083 C 243.345 413.548 256.377 391.086 276.165 377.895 L 275.492 377.895 C 246.028 377.895 222.15 354.139 222.15 324.754 C 222.15 320.065 222.819 315.553 223.961 311.22 C 223.648 311.138 223.335 311.075 223.014 311.001 L 213.697 311.001 L 213.697 309.113 C 207.801 308.186 201.761 307.69 195.606 307.69 C 139.653 307.69 92.958 347.605 81.991 400.72 C 81.639 400.72 81.303 400.669 80.959 400.669 C 71.638 400.669 62.762 402.455 54.552 405.595 C 70.199 424.975 88.739 441.914 109.438 455.905 L 245.3 455.905 C 244.038 450.499 243.345 444.87 243.345 439.083 Z" transform="matrix(0.999980926514, 0.00612499984, -0.00612499984, 0.999980926514, -0.000010101294, -0.000022743313)"/>
  <path style="fill: rgb(205, 228, 230); transform-origin: 165.359px 381.798px;" d="M 243.345 439.083 C 243.345 413.548 256.377 391.086 276.165 377.895 L 275.492 377.895 C 246.028 377.895 222.15 354.139 222.15 324.754 C 222.15 320.065 222.819 315.553 223.961 311.22 C 223.648 311.138 223.335 311.075 223.014 311.001 L 213.697 311.001 L 213.697 309.113 C 207.801 308.186 201.761 307.69 195.606 307.69 C 139.653 307.69 92.958 347.605 81.991 400.72 C 81.639 400.72 81.303 400.669 80.959 400.669 C 71.638 400.669 62.762 402.455 54.552 405.595 C 70.199 424.975 88.739 441.914 109.438 455.905 L 245.3 455.905 C 244.038 450.499 243.345 444.87 243.345 439.083 Z" transform="matrix(0.999980926514, 0.00612499984, -0.00612499984, 0.999980926514, -0.000010101294, -0.000022743313)"/>
  <path style="fill: rgb(255, 212, 100); transform-origin: 218.794px 310.387px;" d="M 214.135 311.331 L 223.452 311.331 C 220.391 310.583 217.291 309.938 214.135 309.443 L 214.135 311.331 Z" transform="matrix(0.999980926514, 0.00612499984, -0.00612499984, 0.999980926514, -0.000013275176, -0.000018362486)"/>
  <path style="fill: rgb(245, 245, 245); transform-origin: 218.794px 310.387px;" d="M 214.135 311.331 L 223.452 311.331 C 220.391 310.583 217.291 309.938 214.135 309.443 L 214.135 311.331 Z" transform="matrix(0.999980926514, 0.00612499984, -0.00612499984, 0.999980926514, -0.000013275176, -0.000018362486)"/>
  <g transform="matrix(0.9774390459060669, 0.005987000185996294, -0.005972000304609537, 0.9750500321388245, 1.6347240209579468, -1.44281804561615)" style="">
    <g>
      <path id="SVGCleanerId_13" style="fill:#F5F5F5;" d="M229.852,319.62c-1.168,4.444-1.852,9.076-1.852,13.88 c0,30.136,24.428,54.5,54.572,54.5h0.688c6.548-4.376,13.836-7.696,21.612-9.868C289.176,349.368,262.14,327.816,229.852,319.62z"/>
    </g>
    <g>
      <path id="SVGCleanerId_13_1_" style="fill:#F5F5F5;" d="M229.852,319.62c-1.168,4.444-1.852,9.076-1.852,13.88 c0,30.136,24.428,54.5,54.572,54.5h0.688c6.548-4.376,13.836-7.696,21.612-9.868C289.176,349.368,262.14,327.816,229.852,319.62z"/>
    </g>
  </g>
  <g transform="matrix(0.9774390459060669, 0.005987000185996294, -0.005972000304609537, 0.9750500321388245, 1.6347240209579468, -1.44281804561615)" style="">
    <path id="SVGCleanerId_13_2_" style="fill:#DEEBEC;" d="M229.852,319.62c-1.168,4.444-1.852,9.076-1.852,13.88 c0,30.136,24.428,54.5,54.572,54.5h0.688c6.548-4.376,13.836-7.696,21.612-9.868C289.176,349.368,262.14,327.816,229.852,319.62z"/>
    <path id="path-1" style="fill:#DEEBEC;" d="M 375.657 36.773 C 374.489 41.217 373.805 45.849 373.805 50.653 C 373.805 80.789 396.696 105.409 426.84 105.409 C 426.84 105.409 446.488 107.449 454.264 105.277 C 438.568 76.513 407.945 44.969 375.657 36.773 Z"/>
  </g>
  <path style="fill: rgb(245, 245, 245); transform-origin: 292.61px 462.321px;" d="M 310.677 435.956 C 310.959 432.726 311.123 429.458 311.15 426.162 C 295.386 444.825 271.696 456.681 245.199 456.681 L 244.812 456.681 C 248.804 473.631 258.692 488.293 272.181 498.479 C 275.246 498.199 278.292 497.836 281.326 497.447 C 281.87 497.373 282.413 497.326 282.961 497.251 C 285.306 496.931 287.629 496.537 289.963 496.159 C 291.39 495.918 292.829 495.702 294.264 495.438 C 296.137 495.095 297.99 494.704 299.855 494.326 C 301.747 493.928 303.651 493.538 305.532 493.101 C 307.045 492.754 308.547 492.375 310.04 492.005 C 312.3 491.44 314.54 490.85 316.781 490.223 C 317.965 489.896 319.142 489.552 320.319 489.205 C 322.899 488.441 325.457 487.633 328.01 486.783 C 328.87 486.499 329.734 486.218 330.59 485.924 C 333.491 484.923 336.373 483.866 339.235 482.762 C 339.626 482.61 340.013 482.465 340.408 482.317 C 338.535 462.535 327.075 445.613 310.677 435.956 Z" transform="matrix(0.999980926514, 0.00612499984, -0.00612499984, 0.999980926514, -0.000017544424, -0.000027360602)"/>
  <path style="fill: rgb(205, 228, 230); transform-origin: 292.61px 462.321px;" d="M 310.677 435.956 C 310.959 432.726 311.123 429.458 311.15 426.162 C 295.386 444.825 271.696 456.681 245.199 456.681 L 244.812 456.681 C 248.804 473.631 258.692 488.293 272.181 498.479 C 275.246 498.199 278.292 497.836 281.326 497.447 C 281.87 497.373 282.413 497.326 282.961 497.251 C 285.306 496.931 287.629 496.537 289.963 496.159 C 291.39 495.918 292.829 495.702 294.264 495.438 C 296.137 495.095 297.99 494.704 299.855 494.326 C 301.747 493.928 303.651 493.538 305.532 493.101 C 307.045 492.754 308.547 492.375 310.04 492.005 C 312.3 491.44 314.54 490.85 316.781 490.223 C 317.965 489.896 319.142 489.552 320.319 489.205 C 322.899 488.441 325.457 487.633 328.01 486.783 C 328.87 486.499 329.734 486.218 330.59 485.924 C 333.491 484.923 336.373 483.866 339.235 482.762 C 339.626 482.61 340.013 482.465 340.408 482.317 C 338.535 462.535 327.075 445.613 310.677 435.956 Z" transform="matrix(0.999980926514, 0.00612499984, -0.00612499984, 0.999980926514, -0.000017544424, -0.000027360602)"/>
  <g transform="matrix(0.9774390459060669, 0.005987000185996294, -0.005972000304609537, 0.9750500321388245, 1.6347240209579468, -1.44281804561615)" style="">
    <g>
      <path id="SVGCleanerId_14" style="fill:#F5F5F5;" d="M309.672,388h-26.416c-20.244,13.528-33.576,36.556-33.576,62.752 c0,5.94,0.708,11.716,2.008,17.252h0.396c27.104,0,51.344-12.164,67.468-31.3c0-0.248,0.016-0.492,0.016-0.74 C319.572,418.908,316.024,402.692,309.672,388z"/>
    </g>
    <g>
      <path id="SVGCleanerId_14_1_" style="fill:#F5F5F5;" d="M309.672,388h-26.416c-20.244,13.528-33.576,36.556-33.576,62.752 c0,5.94,0.708,11.716,2.008,17.252h0.396c27.104,0,51.344-12.164,67.468-31.3c0-0.248,0.016-0.492,0.016-0.74 C319.572,418.908,316.024,402.692,309.672,388z"/>
    </g>
  </g>
  <g transform="matrix(0.9774390459060669, 0.005987000185996294, -0.005972000304609537, 0.9750500321388245, 1.6347240209579468, -1.44281804561615)" style="">
    <path id="SVGCleanerId_14_2_" style="fill:#DEEBEC;" d="M309.672,388h-26.416c-20.244,13.528-33.576,36.556-33.576,62.752 c0,5.94,0.708,11.716,2.008,17.252h0.396c27.104,0,51.344-12.164,67.468-31.3c0-0.248,0.016-0.492,0.016-0.74 C319.572,418.908,316.024,402.692,309.672,388z"/>
    <path id="path-3" style="fill:#DEEBEC;" d="M 453.88 105.51 L 429.001 105.51 C 408.757 119.038 395.425 142.066 395.425 168.262 C 395.425 174.202 396.133 179.978 397.433 185.514 L 397.829 185.514 C 424.933 185.514 449.173 173.35 465.297 154.214 C 465.297 153.966 465.313 153.722 465.313 153.474 C 465.317 136.418 460.232 120.202 453.88 105.51 Z"/>
  </g>
  <path style="fill: rgb(245, 245, 245); transform-origin: 289.126px 373.842px;" d="M 297.339 369.031 C 289.739 371.144 282.607 374.385 276.216 378.652 L 302.035 378.652 C 300.612 375.364 299.044 372.151 297.339 369.031 Z" transform="matrix(0.999980926514, 0.00612499984, -0.00612499984, 0.999980926514, -0.000017491891, -0.000022067061)"/>
  <g transform="matrix(0.9774390459060669, 0.005987000185996294, -0.005972000304609537, 0.9750500321388245, 1.6347240209579468, -1.44281804561615)" style="">
    <path id="SVGCleanerId_15" style="fill:#F5F5F5;" d="M304.872,378.132c-7.776,2.168-15.072,5.492-21.612,9.868h26.416 C308.22,384.628,306.616,381.332,304.872,378.132z"/>
  </g>
  <g transform="matrix(0.9774390459060669, 0.005987000185996294, -0.005972000304609537, 0.9750500321388245, 1.6347240209579468, -1.44281804561615)" style="">
    <path id="SVGCleanerId_15_1_" style="fill:#F5F5F5;" d="M304.872,378.132c-7.776,2.168-15.072,5.492-21.612,9.868h26.416 C308.22,384.628,306.616,381.332,304.872,378.132z"/>
  </g>
  <g transform="matrix(0.9774390459060669, 0.005987000185996294, -0.005972000304609537, 0.9750500321388245, 1.6347240209579468, -1.44281804561615)" style="">
    <path id="SVGCleanerId_15_2_" style="fill:#F5F5F5;" d="M304.872,378.132c-7.776,2.168-15.072,5.492-21.612,9.868h26.416 C308.22,384.628,306.616,381.332,304.872,378.132z"/>
  </g>
  <path style="fill: rgb(179, 216, 220); transform-origin: 47.2845px 158.711px;" d="M 92.953 121.909 C 83.155 109.261 70.871 98.672 56.78 90.961 C 26.064 128.591 6.1 175.309 1.616 226.46 C 3.524 204.724 8.235 183.795 15.371 164.009 C 36.535 143.415 63.223 128.587 92.953 121.909 Z" transform="matrix(0.999980926514, 0.00612499984, -0.00612499984, 0.999980926514, -0.00000278656, -0.000009458206)"/>
  <g transform="matrix(0.9774390459060669, 0.005987000185996294, -0.005972000304609537, 0.9750500321388245, 1.6347240209579468, -1.44281804561615)" style="">
    <path style="fill:#F5F5F5;" d="M1.476,283.376c-0.024-0.168-0.04-0.336-0.056-0.504C1.436,283.04,1.452,283.208,1.476,283.376z"/>
    <path style="fill:#F5F5F5;" d="M0.736,275.16c-0.036-0.476-0.08-0.948-0.108-1.416C0.656,274.212,0.7,274.684,0.736,275.16z"/>
    <path style="fill:#F5F5F5;" d="M0.252,244.64c0.148-3.376,0.388-6.732,0.664-10.072C0.632,237.908,0.4,241.26,0.252,244.64z"/>
    <path style="fill:#F5F5F5;" d="M0.252,266.644c-0.032-0.616-0.072-1.232-0.088-1.848C0.18,265.416,0.22,266.028,0.252,266.644z"/>
  </g>
  <path style="fill: rgb(205, 228, 230); transform-origin: 73.487px 219.602px;" d="M 85.505 317.14 C 119.304 317.14 146.692 290.065 146.692 256.553 C 146.692 234.337 134.619 215.066 116.657 204.488 C 116.97 201.025 117.154 197.523 117.154 193.976 C 117.154 166.85 107.954 141.908 92.581 122.064 C 62.851 128.74 36.155 143.573 14.995 164.163 C 7.863 183.946 3.152 204.878 1.236 226.614 C 1.201 226.981 1.193 227.348 1.162 227.714 C 0.892 230.971 0.657 234.243 0.513 237.535 C 0.364 241.217 0.282 244.907 0.282 248.62 C 0.282 251.49 0.337 254.349 0.435 257.196 C 0.458 257.797 0.497 258.398 0.517 258.998 C 0.61 261.311 0.724 263.62 0.884 265.91 C 0.923 266.374 0.966 266.834 0.998 267.294 C 1.189 269.81 1.404 272.322 1.67 274.814 C 1.686 274.978 1.701 275.141 1.725 275.306 C 3.273 289.647 6.045 303.625 9.908 317.14 L 85.505 317.14 Z" transform="matrix(0.999980926514, 0.00612499984, -0.00612499984, 0.999980926514, -0.000004365212, -0.000013027667)"/>
  <path style="fill: rgb(205, 228, 230); transform-origin: 307.516px 107.147px;" d="M 387.605 164.433 C 387.605 138.897 400.637 116.436 420.424 103.245 L 419.752 103.245 C 390.288 103.245 366.41 79.488 366.41 50.105 C 366.41 45.416 367.079 40.904 368.22 36.57 C 367.908 36.488 367.595 36.426 367.274 36.352 L 357.957 34.464 C 352.061 33.536 346.02 33.04 339.866 33.04 C 283.913 33.04 237.218 72.956 226.251 126.069 C 225.899 126.069 225.563 126.019 225.218 126.019 C 215.897 126.019 202.819 129.712 194.608 132.851 C 210.256 152.232 232.999 167.265 253.698 181.254 L 389.56 181.254 C 388.297 175.849 387.605 170.221 387.605 164.433 Z" transform="matrix(0.999980926514, 0.00612499984, -0.00612499984, 0.999980926514, -0.00001829189, -0.000006181447)"/>
</svg>